<svg version="1.1" xmlns="http://www.w3.org/2000/svg" xmlns:xlink="http://www.w3.org/1999/xlink" x="0" y="0" width="261" height="58" viewBox="0 0 261 58" xml:space="preserve">

   <rect id="frame" fill="#ffffff" x="0" y="0" width="261" height="58" rx="9"></rect>

   <rect id="framee" fill="#292929" x="2" y="2" width="257" height="54" rx="7"></rect>

  <path transform="translate(-2,-2)"  width="30" height="31" d="M51,30.5 C51,39.620375 43.8404202,47 34.991996,47 C26.1595798,47 19,39.620375 19,30.5 C19,21.396125 26.1595798,14 34.991996,14 C43.8404202,14 51,21.396125 51,30.5 L51,30.5 Z M39.158909,44 C44.8659947,42.085434 49,36.669283 49,30.2641509 C49,22.389283 42.7253187,16 34.9916988,16 C27.2736436,16 21,22.3882264 21,30.2641509 C21,36.669283 25.1506078,42.101283 30.8742959,44 L30.8742959,41.3088302 C26.7880225,42.2502642 25.9288467,39.3604528 25.9288467,39.3604528 C25.2803143,37.6603774 24.3402016,37.2144906 24.3402016,37.2144906 C23.0265342,36.3068679 24.4377409,36.322717 24.4377409,36.322717 C25.8811147,36.4220377 26.6427513,37.8252075 26.6427513,37.8252075 C28.0041506,40.202566 30.2579306,39.3446038 30.9552327,38.9969811 C31.1658761,37.957283 31.9607175,37.7417358 32.2201304,37.6593208 C28.539579,37.2630943 24.5996146,35.9095849 24.5996146,29.4209811 C24.5996146,27.6046792 25.2315446,26.1190943 26.2691966,24.9631698 C26.1073229,24.5341887 25.5397272,22.8499623 26.4310703,20.5550189 C26.4310703,20.5550189 27.809072,20.1101887 30.9220279,22.2550943 C32.2190928,21.8916226 33.613697,21.7098868 35.0083012,21.6940377 C36.386303,21.7109434 37.7809072,21.8926792 39.0945746,22.2550943 C42.2075304,20.1091321 43.5689297,20.5550189 43.5689297,20.5550189 C44.4602728,22.8499623 43.9092796,24.5341887 43.7308034,24.9631698 C44.7850578,26.1190943 45.4169878,27.6046792 45.4169878,29.4209811 C45.4169878,35.9095849 41.4770234,37.2461887 37.796472,37.6424151 C38.4616069,38.1062642 39.158909,38.9811321 39.158909,40.6484528 L39.158909,44 L39.158909,44 Z" fill="#FFFFFF"></path>

  <defs>
  <polygon id="polyclip" points="-42.167,58 -230,58 -190,0 -2.167,0"/>
</defs>
<clipPath id="clipper">
  <use xlink:href="#polyclip"  style="overflow:visible;"/>
</clipPath>

<g style="opacity:0.2;clip-path:url(#clipper);">
  <path style="fill:#FFFFFF;" d="M9.00313231,0 C4.03083963,0 0,4.03239867 0,8.99886237 L0,49.0011376 C0,53.9710721 4.02123577,58 9.00313231,58 L251.996868,58 C256.96916,58 261,53.9676013 261,49.0011376 L261,8.99886237 C261,4.02892792 256.978764,0 251.996868,0 L9.00313231,0 L9.00313231,0 Z"/>
</g>

<animateTransform xlink:href="#polyclip" attributeName="transform" type="translate" from="-1000 0" to="2500 0" begin="0s" dur="3s" repeatCount="indefinite" />

</svg>