<svg class="symbols" version="1.1" xmlns="http://www.w3.org/2000/svg" xmlns:xlink="http://www.w3.org/1999/xlink" x="0" y="0" viewBox="0 0 260 260" xml:space="preserve">

  <g>
    <path fill="#5E6EFB" stroke="#A6AFFD" stroke-width="3" transform="translate(2,2)" d="M79.1100124,256 C50.0766379,256 33.3844252,256 16.6922126,239.307787 C-9.95263132e-08,222.615575 0,205.923362 0,176.889988 L0,79.1100124 C0,50.0766379 -9.95263132e-08,33.3844252 16.6922126,16.6922126 C33.3844252,0 50.0766379,0 79.1100124,0 L176.889988,0 C205.923362,0 222.615575,0 239.307787,16.6922126 C256,33.3844252 256,50.0766379 256,79.1100124 L256,176.889988 C256,205.923362 256,222.615575 239.307787,239.307787 C222.615575,256 205.923362,256 176.889988,256 L79.1100124,256 L79.1100124,256 Z"></path>
    
    <g>
        <path fill="#A6AFFD" stroke="#5E6EFB" stroke-width="5" transform="translate(26,46)"  d="M23.9485318,80 C23.9485318,124.182782 59.6889392,160 103.776971,160 C127.811386,160 149.36502,149.355689 164,132.514476 L158.157871,127.054895 C144.983452,142.332368 125.506789,152 103.776971,152 C64.0977424,152 31.9313757,119.764504 31.9313757,80 C31.9313757,79.4728632 31.9370284,78.9470495 31.9482764,78.4226164 L50.3089179,96 L55.8799074,90.6666667 L28.0249595,64 L0,90.6666667 L5.5709896,96 L23.9643502,78.391293 C23.953821,78.9262577 23.9485318,79.4625098 23.9485318,80 Z M183.834652,80 C183.834652,35.8172178 147.770671,0 103.283492,0 C77.6149921,0 54.7506878,11.9240305 40,30.4989995 L46.0872634,35.75437 C59.354095,18.862384 80.0415304,8 103.283492,8 C143.321953,8 175.779536,40.235496 175.779536,80 C175.779536,81.8174578 175.711732,83.6191875 175.5785,85.4028302 L157.235614,68 L151.614188,73.3333333 L179.721319,100 L208,73.3333333 L202.378574,68 L183.626863,85.7907031 C183.7646,83.878285 183.834652,81.9472673 183.834652,80 Z"></path>
    </g>
  </g>

</svg>